<svg width="216" height="108" viewBox="0 0 216 108" fill="none" xmlns="http://www.w3.org/2000/svg">
<path fill-rule="evenodd" clip-rule="evenodd" d="M108 4C107.697 4 107.395 4.00132 107.092 4.00396L107.058 0.00411212C107.372 0.00137115 107.686 -2.38387e-07 108 0C108.314 2.3845e-07 108.629 0.00137186 108.943 0.0041132L108.908 4.00396C108.605 4.00132 108.303 4 108 4ZM95.3256 4.77519C94.725 4.84894 94.1251 4.92792 93.526 5.01211L92.9693 1.05104C93.5915 0.963605 94.2144 0.881588 94.8382 0.805003L95.3256 4.77519ZM122.474 5.01213C121.875 4.92793 121.275 4.84895 120.674 4.7752L121.162 0.80502C121.786 0.881606 122.409 0.963623 123.031 1.05106L122.474 5.01213ZM81.9605 7.31262C81.3748 7.46409 80.7904 7.62069 80.2073 7.78241L79.1383 3.92788C79.7439 3.75995 80.3508 3.59732 80.959 3.44003L81.9605 7.31262ZM135.793 7.78244C135.21 7.62073 134.625 7.46412 134.04 7.31265L135.041 3.44006C135.649 3.59736 136.256 3.75998 136.862 3.92792L135.793 7.78244ZM69.041 11.5728C68.7606 11.6861 68.4805 11.8007 68.201 11.9165C67.9214 12.0323 67.6424 12.1493 67.3639 12.2675L65.801 8.58548C66.0902 8.46274 66.3799 8.34124 66.6702 8.22098C66.9606 8.10072 67.2514 7.98176 67.5426 7.86409L69.041 11.5728ZM147.799 11.9165C147.52 11.8007 147.24 11.6862 146.959 11.5729L148.458 7.86413C148.749 7.98181 149.04 8.10077 149.33 8.22103C149.62 8.34129 149.91 8.46279 150.199 8.58553L148.636 12.2675C148.358 12.1494 148.079 12.0324 147.799 11.9165ZM56.788 17.483C56.2613 17.781 55.7373 18.0835 55.216 18.3905L53.1859 14.944C53.7272 14.6252 54.2713 14.311 54.8183 14.0015L56.788 17.483ZM160.784 18.3906C160.263 18.0836 159.739 17.781 159.212 17.483L161.182 14.0016C161.729 14.3111 162.273 14.6252 162.814 14.9441L160.784 18.3906ZM45.4113 24.9418C44.9281 25.3059 44.4481 25.6743 43.9712 26.0468L41.5086 22.8948C42.0038 22.5079 42.5023 22.1254 43.004 21.7473L45.4113 24.9418ZM172.029 26.0469C171.552 25.6743 171.072 25.306 170.589 24.9419L172.996 21.7474C173.498 22.1255 173.996 22.508 174.492 22.8949L172.029 26.0469ZM35.1055 33.8218C34.8898 34.0339 34.6749 34.2469 34.4609 34.4608C34.2469 34.6748 34.0339 34.8897 33.8219 35.1054L30.9689 32.3018C31.1891 32.0777 31.4103 31.8546 31.6325 31.6324C31.8547 31.4102 32.0778 31.189 32.3019 30.9688L35.1055 33.8218ZM181.539 34.4609C181.325 34.2469 181.11 34.0339 180.895 33.8219L183.698 30.9689C183.922 31.1891 184.145 31.4103 184.368 31.6325C184.59 31.8547 184.811 32.0778 185.031 32.3019L182.178 35.1055C181.966 34.8898 181.753 34.6749 181.539 34.4609ZM26.0469 43.9711C25.6743 44.448 25.306 44.928 24.9419 45.4112L21.7474 43.0039C22.1255 42.5022 22.508 42.0037 22.8948 41.5085L26.0469 43.9711ZM191.058 45.4113C190.694 44.9281 190.326 44.4481 189.953 43.9712L193.105 41.5086C193.492 42.0038 193.875 42.5023 194.253 43.004L191.058 45.4113ZM18.3906 55.2159C18.0835 55.7372 17.781 56.2612 17.483 56.7879L14.0016 54.8182C14.311 54.2712 14.6252 53.7271 14.9441 53.1857L18.3906 55.2159ZM198.517 56.788C198.219 56.2613 197.917 55.7373 197.609 55.216L201.056 53.1859C201.375 53.7272 201.689 54.2713 201.998 54.8183L198.517 56.788ZM12.2675 67.3638C12.1493 67.6422 12.0323 67.9212 11.9165 68.2008C11.8007 68.4804 11.6862 68.7604 11.5729 69.0409L7.86412 67.5425C7.98179 67.2512 8.10076 66.9604 8.22102 66.6701C8.34128 66.3798 8.46278 66.09 8.58552 65.8009L12.2675 67.3638ZM204.084 68.2009C203.968 67.9214 203.851 67.6423 203.733 67.3639L207.415 65.801C207.537 66.0901 207.659 66.3799 207.779 66.6702C207.899 66.9605 208.018 67.2513 208.136 67.5426L204.427 69.041C204.314 68.7605 204.199 68.4805 204.084 68.2009ZM7.78243 80.2071C7.62072 80.7902 7.46411 81.3747 7.31264 81.9604L3.44005 80.9589C3.59735 80.3506 3.75997 79.7437 3.92791 79.1382L7.78243 80.2071ZM208.687 81.9605C208.536 81.3748 208.379 80.7904 208.218 80.2072L212.072 79.1383C212.24 79.7439 212.403 80.3508 212.56 80.959L208.687 81.9605ZM5.01212 93.5259C4.92793 94.1249 4.84895 94.7248 4.7752 95.3255L0.805014 94.838C0.881599 94.2142 0.963616 93.5913 1.05105 92.9692L5.01212 93.5259ZM211.225 95.3256C211.151 94.725 211.072 94.1251 210.988 93.526L214.949 92.9693C215.036 93.5914 215.118 94.2144 215.195 94.8381L211.225 95.3256ZM4.00396 107.092C4.00132 107.395 4 107.697 4 108H0C0 107.686 0.0013715 107.371 0.00411272 107.057L4.00396 107.092ZM212 108C212 107.697 211.999 107.395 211.996 107.092L215.996 107.057C215.998 107.271 215.999 107.484 216 107.698C216 107.799 216 107.899 216 108H212Z" fill="#F6C833"/>
</svg>
