<svg width="162" height="88" viewBox="0 0 162 88" fill="none" xmlns="http://www.w3.org/2000/svg">
<path d="M148.809 40.6055C148.755 40.6055 148.704 40.6212 148.65 40.6212C149.651 38.3136 150.211 35.7635 150.211 33.0804C150.211 22.5672 141.688 14.0409 131.172 14.0409C127.456 14.0409 124 15.1204 121.069 16.9665C117.106 7.32936 107.635 0.539592 96.5723 0.539592C81.9422 0.539592 70.082 12.3982 70.082 27.0338C70.082 28.1367 70.1712 29.2162 70.3026 30.2878C70.2283 30.2878 70.1563 30.28 70.082 30.28C60.2728 30.28 52.3206 38.2275 52.3206 48.0367C52.3206 57.8459 60.2728 65.8011 70.082 65.8011H148.809C155.766 65.8011 161.405 60.1613 161.405 53.2072C161.405 46.2454 155.766 40.6055 148.809 40.6055Z" fill="#C2CEF2"/>
<path d="M117.246 57.1804C117.18 57.1804 117.12 57.1961 117.054 57.1961C118.261 54.4035 118.937 51.3293 118.937 48.0987C118.937 35.4187 108.659 25.148 95.9818 25.148C91.5011 25.148 87.3342 26.4465 83.8008 28.6681C79.0214 17.0519 67.604 8.86201 54.2638 8.86201C36.6245 8.86201 22.3245 23.169 22.3245 40.8083C22.3245 42.1381 22.4324 43.4444 22.5912 44.7351C22.5013 44.7351 22.4145 44.7195 22.3245 44.7195C10.4979 44.7195 0.91011 54.3096 0.91011 66.1362C0.91011 77.9627 10.4979 87.5505 22.3245 87.5505H117.246C125.634 87.5505 132.434 80.7514 132.434 72.3636C132.434 63.9765 125.634 57.1804 117.246 57.1804Z" fill="white"/>
</svg>
