<svg width="44" height="43" viewBox="0 0 44 43" fill="none" xmlns="http://www.w3.org/2000/svg">
<path d="M38.5011 16.3833C38.4797 16.3833 38.4603 16.3892 38.4389 16.3895C38.8323 15.4794 39.0527 14.4771 39.0527 13.4227C39.0527 9.28793 35.7007 5.93589 31.566 5.93589C30.1046 5.93589 28.7456 6.36118 27.5932 7.08522C26.0344 3.29667 22.3107 0.627089 17.9598 0.627089C12.2069 0.627089 7.54328 5.2907 7.54328 11.0439C7.54328 11.4786 7.57823 11.9047 7.63002 12.3254C7.60068 12.3251 7.57236 12.3211 7.54328 12.3211C3.68585 12.3211 0.558838 15.4481 0.558838 19.3055C0.558838 23.1627 3.68585 26.2897 7.54328 26.2897H38.5011C41.2368 26.2897 43.4546 24.0722 43.4546 21.3365C43.4546 18.6008 41.2368 16.3833 38.5011 16.3833Z" fill="#C2CEF2"/>
<path d="M20.1378 29.3636L18 36.041H20.9475L19.0365 42.8182L26 33.2505H22.4049L23.7652 29.3636H20.1378Z" fill="#FBDB60"/>
</svg>
