<svg width="44" height="40" viewBox="0 0 44 40" fill="none" xmlns="http://www.w3.org/2000/svg">
<path d="M38.4726 16.0461C38.4514 16.0461 38.432 16.0519 38.411 16.0521C38.8005 15.1512 39.0187 14.1588 39.0187 13.1149C39.0187 9.0215 35.7001 5.70293 31.6067 5.70293C30.1599 5.70293 28.8145 6.12398 27.6736 6.84078C26.1304 3.09007 22.4438 0.447144 18.1365 0.447144C12.4407 0.447144 7.82365 5.06418 7.82365 10.76C7.82365 11.1903 7.85851 11.6121 7.90978 12.0286C7.88074 12.0284 7.8527 12.0243 7.82365 12.0243C4.005 12.0243 0.909088 15.1201 0.909088 18.939C0.909088 22.7577 4.005 25.8535 7.82365 25.8535H38.4726C41.181 25.8535 43.3763 23.6581 43.3763 20.9498C43.3763 18.2414 41.181 16.0461 38.4726 16.0461Z" fill="white"/>
<path d="M14.4984 37.935C13.6654 39.6679 11.5852 40.3976 9.85231 39.5646C8.11941 38.7317 7.38973 36.6515 8.22272 34.9186C9.05596 33.1856 14.4426 30.0149 14.4426 30.0149C14.4426 30.0149 15.3314 36.2021 14.4984 37.935Z" fill="#C2CEF2"/>
<path d="M23.1554 37.935C22.3227 39.6679 20.2425 40.3976 18.5096 39.5646C16.7764 38.7317 16.047 36.6515 16.88 34.9186C17.7132 33.1856 23.0998 30.0149 23.0998 30.0149C23.0998 30.0149 23.9886 36.2021 23.1554 37.935Z" fill="#C2CEF2"/>
<path d="M31.9348 37.935C31.1018 39.6679 29.0216 40.3976 27.2887 39.5646C25.5558 38.7317 24.8264 36.6515 25.6591 34.9186C26.4924 33.1856 31.879 30.0149 31.879 30.0149C31.879 30.0149 32.7678 36.2021 31.9348 37.935Z" fill="#C2CEF2"/>
</svg>
