<svg width="60" height="33" viewBox="0 0 60 33" fill="none" xmlns="http://www.w3.org/2000/svg">
<path d="M54.6578 15.3111C54.6382 15.3111 54.6197 15.3168 54.6 15.3168C54.9638 14.4777 55.1675 13.5504 55.1675 12.5747C55.1675 8.75172 52.0682 5.65123 48.2443 5.65123C46.8932 5.65123 45.6362 6.04378 44.5707 6.71507C43.1294 3.21068 39.6856 0.741669 35.6626 0.741669C30.3426 0.741669 26.0298 5.0539 26.0298 10.3759C26.0298 10.777 26.0622 11.1695 26.11 11.5592C26.083 11.5592 26.0568 11.5564 26.0298 11.5564C22.4628 11.5564 19.5711 14.4464 19.5711 18.0133C19.5711 21.5803 22.4628 24.4731 26.0298 24.4731H54.6578C57.1877 24.4731 59.2383 22.4223 59.2383 19.8935C59.2383 17.3619 57.1877 15.3111 54.6578 15.3111Z" fill="#C2CEF2"/>
<path d="M43.1803 21.3383C43.1564 21.3383 43.1345 21.344 43.1107 21.344C43.5493 20.3285 43.7953 19.2107 43.7953 18.0359C43.7953 13.425 40.058 9.69019 35.4479 9.69019C33.8186 9.69019 32.3033 10.1624 31.0185 10.9702C29.2805 6.74615 25.1287 3.76801 20.2777 3.76801C13.8634 3.76801 8.66345 8.97054 8.66345 15.3848C8.66345 15.8684 8.7027 16.3434 8.76044 16.8128C8.72773 16.8128 8.69617 16.8071 8.66345 16.8071C4.36289 16.8071 0.876404 20.2944 0.876404 24.595C0.876404 28.8955 4.36289 32.382 8.66345 32.382H43.1803C46.2305 32.382 48.7032 29.9096 48.7032 26.8595C48.7032 23.8096 46.2305 21.3383 43.1803 21.3383Z" fill="white"/>
</svg>
