<svg width="56" height="41" viewBox="0 0 56 41" fill="none" xmlns="http://www.w3.org/2000/svg">
<path d="M25.0432 17.4943C25.0432 21.361 21.9082 24.4958 18.041 24.4958C14.1737 24.4958 11.0387 21.361 11.0387 17.4943C11.0387 13.6276 14.1737 10.4928 18.041 10.4928C21.9082 10.4928 25.0432 13.6276 25.0432 17.4943Z" fill="#FBDB60"/>
<path d="M18.0409 7.83154C17.5773 7.83154 17.2014 7.45485 17.2014 6.99204V1.02115C17.2014 0.555638 17.5773 0.181612 18.0409 0.181612C18.5046 0.181612 18.8802 0.555638 18.8802 1.02115V6.99204C18.8802 7.45485 18.5046 7.83154 18.0409 7.83154Z" fill="#FBDB60"/>
<path d="M18.0409 34.8073C17.5773 34.8073 17.2014 34.4316 17.2014 33.968V27.9963C17.2014 27.5308 17.5773 27.1568 18.0409 27.1568C18.5046 27.1568 18.8802 27.5308 18.8802 27.9963V33.968C18.8802 34.4316 18.5046 34.8073 18.0409 34.8073Z" fill="#FBDB60"/>
<path d="M24.8734 10.6624C24.5457 10.3341 24.5457 9.80132 24.8734 9.47304L29.0964 5.2512C29.4241 4.92292 29.9555 4.92292 30.2833 5.2512C30.6113 5.57948 30.6113 6.10955 30.2833 6.43783L26.0606 10.6624C25.7329 10.988 25.2012 10.988 24.8734 10.6624Z" fill="#FBDB60"/>
<path d="M5.79836 29.7374C5.47062 29.4091 5.47062 28.8763 5.79836 28.5508L10.0213 24.3262C10.349 23.9979 10.8805 23.9979 11.2085 24.3262C11.5362 24.6545 11.5362 25.1873 11.2085 25.5129L6.98554 29.7374C6.6578 30.063 6.12609 30.063 5.79836 29.7374Z" fill="#FBDB60"/>
<path d="M27.7036 17.4943C27.7036 17.0315 28.0792 16.6547 28.5429 16.6547H34.5151C34.9785 16.6547 35.3544 17.0315 35.3544 17.4943C35.3544 17.9571 34.9785 18.3338 34.5151 18.3338H28.5429C28.0792 18.3338 27.7036 17.9571 27.7036 17.4943Z" fill="#FBDB60"/>
<path d="M0.727295 17.4943C0.727295 17.0315 1.1032 16.6547 1.56682 16.6547H7.53878C8.00241 16.6547 8.37831 17.0315 8.37831 17.4943C8.37831 17.9571 8.00241 18.3338 7.53878 18.3338H1.56682C1.1032 18.3338 0.727295 17.9571 0.727295 17.4943Z" fill="#FBDB60"/>
<path d="M24.8734 24.3262C25.2012 23.9979 25.7329 23.9979 26.0606 24.3262L30.2833 28.5508C30.6113 28.8763 30.6113 29.4091 30.2833 29.7374C29.9555 30.063 29.4241 30.063 29.0964 29.7374L24.8734 25.5129C24.5457 25.1873 24.5457 24.6545 24.8734 24.3262Z" fill="#FBDB60"/>
<path d="M5.79836 5.2512C6.12609 4.92292 6.6578 4.92292 6.98554 5.2512L11.2085 9.47304C11.5362 9.80132 11.5362 10.3341 11.2085 10.6624C10.8805 10.988 10.349 10.988 10.0213 10.6624L5.79836 6.43783C5.47062 6.10955 5.47062 5.57948 5.79836 5.2512Z" fill="#FBDB60"/>
<path d="M50.1252 29.7346C50.1026 29.7346 50.0819 29.74 50.0593 29.74C50.4742 28.7794 50.7067 27.7219 50.7067 26.6106C50.7067 22.2488 47.1712 18.7158 42.8105 18.7158C41.2692 18.7158 39.8356 19.1625 38.6204 19.9267C36.9763 15.9308 33.0488 13.1136 28.4597 13.1136C22.3919 13.1136 17.4732 18.035 17.4732 24.1028C17.4732 24.5602 17.5103 25.0096 17.5647 25.4536C17.534 25.4536 17.5041 25.4482 17.4732 25.4482C13.4047 25.4482 10.1066 28.7471 10.1066 32.8153C10.1066 36.8835 13.4047 40.1816 17.4732 40.1816H50.1252C53.0105 40.1816 55.3494 37.8428 55.3494 34.9575C55.3494 32.0724 53.0105 29.7346 50.1252 29.7346Z" fill="white"/>
</svg>
