<svg width="43" height="43" viewBox="0 0 43 43" fill="none" xmlns="http://www.w3.org/2000/svg">
<path d="M29.8801 21.2744C29.8801 26.0268 26.0275 29.8795 21.277 29.8795C16.5237 29.8795 12.6711 26.0268 12.6711 21.2744C12.6711 16.521 16.5237 12.6684 21.277 12.6684C26.0275 12.6684 29.8801 16.521 29.8801 21.2744Z" fill="#F6C833"/>
<path d="M21.2768 9.40031C20.7072 9.40031 20.2442 8.94013 20.2442 8.37051V1.03008C20.2442 0.460467 20.7072 0.000281334 21.2768 0.000281334C21.8464 0.000281334 22.3066 0.460467 22.3066 1.03008V8.37051C22.3066 8.94013 21.8464 9.40031 21.2768 9.40031Z" fill="#F6C833"/>
<path d="M21.2768 42.5499C20.7072 42.5499 20.2442 42.0881 20.2442 41.5185V34.1797C20.2442 33.6101 20.7072 33.1482 21.2768 33.1482C21.8464 33.1482 22.3066 33.6101 22.3066 34.1797V41.5185C22.3066 42.0881 21.8464 42.5499 21.2768 42.5499Z" fill="#F6C833"/>
<path d="M29.6724 12.8792C29.2683 12.4751 29.2683 11.8213 29.6724 11.4201L34.8606 6.22902C35.2647 5.82776 35.9185 5.82776 36.3197 6.22902C36.7238 6.63308 36.7238 7.28687 36.3197 7.68813L31.1315 12.8792C30.7274 13.2804 30.0764 13.2804 29.6724 12.8792Z" fill="#F6C833"/>
<path d="M6.2318 36.3187C5.82886 35.9158 5.82886 35.2626 6.2318 34.8599L11.4209 29.6705C11.8236 29.2679 12.4768 29.2679 12.8798 29.6705C13.2824 30.0735 13.2824 30.7264 12.8798 31.1294L7.69036 36.3187C7.28742 36.7217 6.63446 36.7217 6.2318 36.3187Z" fill="#F6C833"/>
<path d="M33.149 21.2748C33.149 20.7052 33.612 20.2422 34.1816 20.2422H41.5193C42.0889 20.2422 42.5519 20.7052 42.5519 21.2748C42.5519 21.8444 42.0889 22.3074 41.5193 22.3074H34.1816C33.612 22.3074 33.149 21.8444 33.149 21.2748Z" fill="#F6C833"/>
<path d="M-3.05176e-05 21.2748C-3.05176e-05 20.7052 0.461855 20.2422 1.03147 20.2422H8.3705C8.94012 20.2422 9.4017 20.7052 9.4017 21.2748C9.4017 21.8444 8.94012 22.3074 8.3705 22.3074H1.03147C0.461855 22.3074 -3.05176e-05 21.8444 -3.05176e-05 21.2748Z" fill="#F6C833"/>
<path d="M29.6724 29.6705C30.0764 29.2679 30.7274 29.2679 31.1315 29.6705L36.3197 34.8599C36.7238 35.2626 36.7238 35.9158 36.3197 36.3187C35.9185 36.7217 35.2647 36.7217 34.8606 36.3187L29.6724 31.1294C29.2683 30.7264 29.2683 30.0735 29.6724 29.6705Z" fill="#F6C833"/>
<path d="M6.2318 6.22902C6.63446 5.82776 7.28742 5.82776 7.69036 6.22902L12.8798 11.4201C13.2824 11.8213 13.2824 12.4751 12.8798 12.8792C12.4768 13.2804 11.8236 13.2804 11.4209 12.8792L6.2318 7.68813C5.82886 7.28687 5.82886 6.63308 6.2318 6.22902Z" fill="#F6C833"/>
</svg>
