<svg width="28" height="25" viewBox="0 0 28 25" fill="none" xmlns="http://www.w3.org/2000/svg">
<path d="M1.45539 3.66197C1.45539 2.94084 1.93614 2.46009 2.65727 2.46009H3.85914C4.58027 2.46009 5.06102 2.94084 5.06102 3.66197C5.06102 4.3831 4.58027 4.86385 3.85914 4.86385H2.65727C1.93614 4.86385 1.45539 4.3831 1.45539 3.66197ZM2.65727 13.277C2.65727 12.5559 3.13802 12.0751 3.85914 12.0751H5.06102C5.78215 12.0751 6.2629 12.5559 6.2629 13.277C6.2629 13.9981 5.78215 14.4789 5.06102 14.4789H3.85914C3.13802 14.4789 2.65727 13.9981 2.65727 13.277ZM2.65727 16.8826C1.93614 16.8826 1.45539 17.3634 1.45539 18.0845C1.45539 18.8056 1.93614 19.2864 2.65727 19.2864H12.2723C12.9934 19.2864 13.4742 18.8056 13.4742 18.0845C13.4742 17.3634 12.9934 16.8826 12.2723 16.8826H2.65727ZM23.0892 3.66197C23.0892 2.94084 23.5699 2.46009 24.2911 2.46009H26.6948C27.416 2.46009 27.8967 2.94084 27.8967 3.66197C27.8967 4.3831 27.416 4.86385 26.6948 4.86385H24.2911C23.5699 4.86385 23.0892 4.3831 23.0892 3.66197ZM6.2629 21.6901C5.54177 21.6901 5.06102 22.1709 5.06102 22.892C5.06102 23.6131 5.54177 24.0939 6.2629 24.0939H14.676C15.3972 24.0939 15.8779 23.6131 15.8779 22.892C15.8779 22.1709 15.3972 21.6901 14.676 21.6901H6.2629ZM1.45539 9.67136C0.73426 9.67136 0.25351 9.19061 0.25351 8.46948C0.25351 7.74835 0.73426 7.2676 1.45539 7.2676H15.8779C17.2 7.2676 18.2817 6.18591 18.2817 4.86385C18.2817 3.54178 17.2 2.46009 15.8779 2.46009C15.1568 2.46009 14.5559 2.70047 14.1953 3.18122C13.7145 3.66197 12.9934 3.66197 12.5127 3.18122C12.0319 2.70047 12.0319 1.97934 12.5127 1.49859C13.354 0.657275 14.5559 0.0563354 15.8779 0.0563354C18.5221 0.0563354 20.6854 2.21972 20.6854 4.86385C20.6854 7.50798 18.5221 9.67136 15.8779 9.67136H1.45539ZM24.2911 12.0751C25.0122 12.0751 25.4929 11.5944 25.4929 10.8732C25.4929 10.1521 25.0122 9.67136 24.2911 9.67136C23.9305 9.67136 23.6901 9.79155 23.4498 10.0319C22.969 10.5127 22.2479 10.5127 21.7671 10.0319C21.2864 9.55117 21.2864 8.83004 21.7671 8.34929C22.3681 7.62817 23.3296 7.2676 24.2911 7.2676C26.3343 7.2676 27.8967 8.83004 27.8967 10.8732C27.8967 12.9164 26.3343 14.4789 24.2911 14.4789H13.4742C12.753 14.4789 12.2723 13.9981 12.2723 13.277C12.2723 12.5559 12.753 12.0751 13.4742 12.0751H24.2911ZM23.0892 19.2864H17.0798C16.3587 19.2864 15.8779 18.8056 15.8779 18.0845C15.8779 17.3634 16.3587 16.8826 17.0798 16.8826H23.0892C25.1324 16.8826 26.6948 18.4451 26.6948 20.4883C26.6948 22.5315 25.1324 24.0939 23.0892 24.0939C22.1277 24.0939 21.1662 23.7333 20.5652 23.0122C20.0845 22.5315 20.0845 21.8103 20.5652 21.3296C21.046 20.8488 21.7671 20.8488 22.2479 21.3296C22.4883 21.57 22.7286 21.6901 23.0892 21.6901C23.8103 21.6901 24.2911 21.2094 24.2911 20.4883C24.2911 19.7671 23.8103 19.2864 23.0892 19.2864Z" fill="white"/>
</svg>
